<?xml version="1.0" encoding="utf-8"?>
<!-- Generator: Adobe Illustrator 24.1.2, SVG Export Plug-In . SVG Version: 6.00 Build 0)  -->
<svg version="1.1" id="Layer_1" xmlns="http://www.w3.org/2000/svg" xmlns:xlink="http://www.w3.org/1999/xlink" x="0px" y="0px"
	 viewBox="0 0 47.9 46.6" style="enable-background:new 0 0 47.9 46.6;" xml:space="preserve">
<style type="text/css">
	.st0{fill:#0C83BD;}
</style>
<g id="Shape_7_copy_2_">
	<path class="st0" d="M8.5,41.4h7.1V16.7H8.5V41.4z M35.5,18.1c-2.6-1.5-6.5-1.6-9.3-0.3v-1.1h-7.1v24.7h7.1V25.6l2.9-1.4
		c0.7-0.3,2.3-0.3,2.9,0.1c0.5,0.3,1.2,1.4,1.2,2.1v15h7.1v-15C40.3,23.1,38.2,19.6,35.5,18.1z M12,5.2c-2.4,0-4.4,2-4.4,4.4
		c0,2.4,2,4.4,4.4,4.4c2.4,0,4.4-2,4.4-4.4C16.4,7.2,14.4,5.2,12,5.2z"/>
</g>
</svg>
