<?xml version="1.0" encoding="utf-8"?>
<!-- Generator: Adobe Illustrator 24.1.2, SVG Export Plug-In . SVG Version: 6.00 Build 0)  -->
<svg version="1.1" id="Layer_1" xmlns="http://www.w3.org/2000/svg" xmlns:xlink="http://www.w3.org/1999/xlink" x="0px" y="0px"
	 viewBox="0 0 400 320.8" style="enable-background:new 0 0 400 320.8;" xml:space="preserve">
<style type="text/css">
	.st0{fill:#F37756;}
	.st1{fill:#F0B77F;}
</style>
<g>
	<g>
		<path class="st0" d="M74.7,148.8H33.7c-13.1,0-23.8-10.7-23.8-23.8V36.4c0-13.1,10.7-23.8,23.8-23.8h41.1
			c37.6,0,68.1,30.5,68.1,68.1v0C142.8,118.3,112.3,148.8,74.7,148.8z"/>
		<path class="st0" d="M74.7,307.7H33.7c-13.1,0-23.8-10.7-23.8-23.8v-88.6c0-13.1,10.7-23.8,23.8-23.8h41.1
			c37.6,0,68.1,30.5,68.1,68.1v0C142.8,277.2,112.3,307.7,74.7,307.7z"/>
	</g>
	<path class="st1" d="M200.4,208L200.4,208c-26.4,0-47.9-21.4-47.9-47.9v0c0-26.4,21.4-47.9,47.9-47.9h0c26.4,0,47.9,21.4,47.9,47.9
		v0C248.2,186.6,226.8,208,200.4,208z"/>
	<g>
		<path class="st0" d="M323.3,148.8h41.1c13.1,0,23.8-10.7,23.8-23.8V36.4c0-13.1-10.7-23.8-23.8-23.8h-41.1
			c-37.6,0-68.1,30.5-68.1,68.1v0C255.2,118.3,285.7,148.8,323.3,148.8z"/>
		<path class="st0" d="M323.3,307.7h41.1c13.1,0,23.8-10.7,23.8-23.8v-88.6c0-13.1-10.7-23.8-23.8-23.8h-41.1
			c-37.6,0-68.1,30.5-68.1,68.1v0C255.2,277.2,285.7,307.7,323.3,307.7z"/>
	</g>
</g>
</svg>
