<?xml version="1.0" encoding="utf-8"?>
<!-- Generator: Adobe Illustrator 24.1.2, SVG Export Plug-In . SVG Version: 6.00 Build 0)  -->
<svg version="1.1" id="Layer_1" xmlns="http://www.w3.org/2000/svg" xmlns:xlink="http://www.w3.org/1999/xlink" x="0px" y="0px"
	 viewBox="0 0 47.9 46.6" style="enable-background:new 0 0 47.9 46.6;" xml:space="preserve">
<style type="text/css">
	.st0{fill:#33A9E0;}
</style>
<g id="Shape_164_1_">
	<path class="st0" d="M38.9,12c2.8-1.8,3-4.3,3-4.3C41,9,37,9.6,37,9.6c-3.4-4.1-8.6-1.9-8.6-1.9c-6.1,2.2-5.2,9.2-5.2,9.2
		C12.7,16.7,7,8.6,7,8.6c-3.2,6.6,2.2,10.6,2.2,10.6c-1.2,0.1-3.3-0.8-3.3-0.8c-0.1,6.1,6.2,8.2,6.2,8.2c-0.6,0.1-3.3,0.1-3.3,0.1
		c1.4,5,7.3,5.5,7.3,5.5c-5.7,4.3-11.5,3.6-11.5,3.6c5.6,4.3,11.2,3.9,15.1,3.3c9.4-1.3,14.4-8.2,14.4-8.2
		c6.6-8.5,4.4-15.7,5.5-16.1c0,0,0,0,0.1,0c1.1-0.5,3.6-3.7,3.6-3.7C41.4,12,38.9,12,38.9,12z"/>
</g>
</svg>
